# xmcd
#
# Track frame offsets:
# 150
# 30950
# 65735
# 95950
# 126145
# 159117
#
# Disc length: 2572 seconds
#
#
# Revision: 0
# Processed by: cddbd v1.4PL0 Copyright (c) Steve Scherf et al.
# Submitted via: FreeRIP 2.12 
#
DISCID=470a0a06
DTITLE=Hank Mobley Quintet - Hank Mobley Quintet
DYEAR=1900
DGENRE=
TTITLE0=Funk in Deep Freeze
TTITLE1=Wham and They're off
TTITLE2=Fin de L'affaire
TTITLE3=Startin' from Scratch
TTITLE4=Stella-wise
TTITLE5=Base on Balls
EXTD=
EXTT0=
EXTT1=
EXTT2=
EXTT3=
EXTT4=
EXTT5=
PLAYORDER=
